<?xml version="1.0" encoding="iso-8859-1"?>
<!-- Generator: Adobe Illustrator 19.0.0, SVG Export Plug-In . SVG Version: 6.00 Build 0)  -->
<svg version="1.1" id="Capa_1" xmlns="http://www.w3.org/2000/svg" xmlns:xlink="http://www.w3.org/1999/xlink" x="0px" y="0px"
	 viewBox="0 0 518.464 518.464" style="enable-background:new 0 0 518.464 518.464;" xml:space="preserve">
<path style="fill:#F8B64C;" d="M335.008,296.064v44.811c-15.04,21.333-37.12,34.016-60.373,37.856
	c-5.109,0.853-10.229,1.291-15.349,1.291c-28.48,0-57.163-13.12-75.627-39.04v-44.917L335.008,296.064L335.008,296.064z"/>
<g style="opacity:0.1;">
	<g>
		<path style="fill:#40596B;" d="M335.008,297.355v43.52c-15.04,21.333-37.12,34.016-60.373,37.856l-43.189-32.107
			c6.293,2.773,13.003,4.267,19.936,4.267h16c14.293,0,27.957-5.984,37.547-16.544l10.56-11.52
			C322.731,314.837,329.152,306.208,335.008,297.355"/>
	</g>
</g>
<path style="fill:#CDD6E0;" d="M515.232,445.504v72.96h-512v-72.96c0-20.373,12.501-38.731,31.477-46.08l148.853-58.56
	c18.453,26.016,47.189,39.147,75.669,39.147c28.608,0,57.397-13.12,75.755-39.147l148.896,58.56
	C502.752,406.88,515.232,425.131,515.232,445.504"/>
<g>
	<path style="fill:#F8B64C;" d="M181.291,179.52c1.579,17.877-7.104,33.227-19.349,34.315
		c-12.267,1.067-23.477-12.544-25.045-30.443c-1.557-17.856,7.104-33.205,19.371-34.293
		C168.544,148.043,179.733,161.675,181.291,179.52"/>
	<path style="fill:#F8B64C;" d="M381.216,183.424c-1.557,17.856-12.768,31.477-25.024,30.4
		c-12.267-1.067-20.939-16.416-19.371-34.293s12.768-31.477,25.045-30.421C374.112,150.187,382.795,165.547,381.216,183.424"/>
</g>
<path style="fill:#FFD15C;" d="M366.251,217.355c-3.189,18.037-8.416,35.648-16.107,52.171
	c-8.853,19.317-20.789,37.44-35.413,53.333l-10.443,11.52c-9.6,10.453-23.253,16.544-37.44,16.544h-15.584
	c-14.08,0-27.829-6.08-37.44-16.544l-10.453-11.52c-14.603-15.893-26.56-34.016-35.413-53.333
	c-7.563-16.523-12.896-34.123-16.107-52.171c-2.976-17.376-6.709-69.963,1.291-98.336c13.003-45.877,53.749-78.837,105.92-80.107
	c52.149,1.269,92.896,34.229,105.92,80.107C372.981,147.403,369.248,199.979,366.251,217.355"/>
<path style="fill:#334A5E;" d="M139.456,171.04l10.603,31.317c0,0-4.747-95.584,31.232-96.437c0,0,53.419,21.419,78.56,27.413
	c0,0,54.272,6.859,82.539-26.56c0,0,21.44,12,14.581,37.707c0,0,11.211,44.416,11.168,57.877l10.443-29.184
	c4.875-14.933,23.829-83.04-31.04-99.808C347.541,73.355,124.875,83.627,139.456,171.04"/>
<g>
	<path style="fill:#40596B;" d="M310.773,276.48c-6.539-13.707-24.128-19.936-25.045-20.245c-11.435-3.563-21.963-0.96-26.315,0.48
		c-4.395-1.44-14.955-4.043-26.496-0.437c-0.747,0.267-18.357,6.496-24.939,20.224c-3.019,6.336-3.275,13.12-0.725,20.192
		l3.349,9.248l5.941-7.851c0.704-0.939,17.579-22.88,41.355-15.733l1.525,0.437l1.525-0.437
		c23.648-7.189,40.565,14.795,41.269,15.733l5.941,7.872l3.349-9.248C314.048,289.632,313.792,282.837,310.773,276.48"/>
	<path style="fill:#40596B;" d="M271.541,317.856c0,3.776-5.44,6.795-12.171,6.795c-6.709,0-12.149-3.019-12.149-6.795
		C247.232,314.112,271.541,314.112,271.541,317.856"/>
</g>
<path style="fill:#F1543F;" d="M133.525,158.571c79.232-29.205,162.752-51.712,249.685-66.517
	c-6.08-10.976-12.309-21.92-18.667-32.811c-56.565,2.869-112.501,8.928-167.563,18.027c-21.621,20.789-42.336,42.016-62.101,63.669
	C134.421,146.837,133.963,152.693,133.525,158.571"/>
<path style="fill:#FF7058;" d="M392.043,87.04c-1.643,14.539-76.672-7.872-141.877,13.024
	c-67.083,14.603-117.003,69.984-125.835,58.229C103.84,137.877,121.419,33.44,220.939,5.312
	C321.941-21.205,400.629,58.731,392.043,87.04"/>
<g>
	<path style="fill:#F2F2F2;" d="M334.987,340.832c0,0,0.608,96.875-72.832,177.184h201.504c0,0-40.811-80.768-22.933-135.605
		L334.987,340.832z"/>
	<path style="fill:#F2F2F2;" d="M183.648,340.853c0,0-0.608,96.875,72.811,177.184H54.965c0,0,40.832-80.768,22.955-135.627
		L183.648,340.853z"/>
</g>
<g>
	<path style="fill:#ACB3BA;" d="M374.688,356.171c-8.672-2.56-16.309-7.776-22.165-14.667
		c-11.691-13.749-17.525-17.312-17.525-17.312c0,19.296-21.067,34.795-21.067,34.795c-25.941,22.859-29.184,44.747-29.184,44.747
		l-22.603,114.293l19.189-23.104C316,458.699,342.731,415.691,360.437,368.8c0.331-0.896,0.523-1.376,0.523-1.376
		c28.875,6.293,36.171-10.453,36.171-10.453C390.549,359.648,381.984,358.357,374.688,356.171"/>
	<path style="fill:#ACB3BA;" d="M143.936,356.171c8.672-2.56,16.309-7.776,22.165-14.667c11.669-13.749,17.504-17.312,17.504-17.312
		c0,19.296,21.088,34.795,21.088,34.795c25.941,22.859,29.184,44.747,29.184,44.747l22.581,114.293l-19.168-23.104
		c-34.667-36.224-61.397-79.232-79.104-126.123c-0.331-0.896-0.523-1.376-0.523-1.376c-28.875,6.293-36.171-10.453-36.171-10.453
		C128.085,359.648,136.629,358.357,143.936,356.171"/>
</g>
<g>
</g>
<g>
</g>
<g>
</g>
<g>
</g>
<g>
</g>
<g>
</g>
<g>
</g>
<g>
</g>
<g>
</g>
<g>
</g>
<g>
</g>
<g>
</g>
<g>
</g>
<g>
</g>
<g>
</g>
</svg>
