<?xml version="1.0" encoding="iso-8859-1"?>
<!-- Generator: Adobe Illustrator 19.0.0, SVG Export Plug-In . SVG Version: 6.00 Build 0)  -->
<svg version="1.1" id="Capa_1" xmlns="http://www.w3.org/2000/svg" xmlns:xlink="http://www.w3.org/1999/xlink" x="0px" y="0px"
	 viewBox="0 0 512 512" style="enable-background:new 0 0 512 512;" xml:space="preserve">
<g>
	<path style="fill:#F8B64C;" d="M180.352,341.013v-0.032l0.021,0.021l0.021-0.011v0.021c37.899,50.197,113.291,50.197,151.189,0.011
		l0.043-0.043v0.032v-55.392H180.309v55.403L180.352,341.013z"/>
	<path style="fill:#F8B64C;" d="M181.141,197.28c1.664,19.147-7.627,35.605-20.747,36.747c-13.141,1.152-25.141-13.44-26.837-32.587
		c-1.664-19.147,7.627-35.595,20.768-36.747C167.456,163.541,179.456,178.133,181.141,197.28"/>
	<path style="fill:#F8B64C;" d="M378.539,201.44c-1.664,19.147-13.685,33.739-26.816,32.587
		c-13.141-1.152-22.443-17.6-20.747-36.747c1.664-19.147,13.664-33.739,26.816-32.587
		C370.912,165.835,380.213,182.293,378.539,201.44"/>
</g>
<path style="fill:#FFD15C;" d="M366.517,138.112v36.267c0,1.173,0,2.347-0.128,3.52c-0.107,6.507-0.523,13.013-1.376,19.413
	c-1.6,12.587-4.267,24.96-8,36.907c-9.067,28.907-24.309,55.573-44.917,78.08l-10.56,11.52
	c-9.579,10.56-23.253,16.533-37.547,16.533h-16c-14.187,0-27.829-6.08-37.44-16.533l-10.453-11.52
	c-14.603-15.893-26.56-34.027-35.392-53.333c-8.981-19.413-14.933-40.213-17.504-61.653c-0.747-6.08-1.291-12.267-1.291-18.453
	c0-0.107-0.107-0.107-0.107-0.213c-0.107-1.387-0.107-2.88-0.107-4.267c-0.107-0.853-0.107-1.6-0.107-2.443v-33.173
	c0-10.453,1.504-20.693,4.267-30.293c13.12-46.187,55.669-80.107,106.229-80.107c50.453,0,93.024,33.92,106.144,80.107
	C365.024,117.845,366.517,127.872,366.517,138.112"/>
<g style="opacity:0.1;">
	<g>
		<path style="fill:#40596B;" d="M312.107,312.299l-10.56,11.52c-9.579,10.56-23.253,16.533-37.547,16.533h-16
			c-6.891,0-13.643-1.493-19.893-4.171l52.608,39.083c19.232-5.152,37.12-16.341,50.453-33.749c0.149-0.192,0.267-0.352,0.416-0.544
			l0.043-54.133C325.728,295.744,319.371,304.363,312.107,312.299"/>
	</g>
</g>
<rect x="128.853" y="99.307" style="fill:#40596B;" width="254.517" height="40.331"/>
<rect x="128.853" y="111.36" style="fill:#FFD15C;" width="254.517" height="8.117"/>
<path style="fill:#F2F2F2;" d="M417.728,80.181c0.128,9.877-8.48,18.475-19.125,19.115H113.525
	c-10.795-0.629-19.403-9.237-19.125-19.115c0-6.795,0.896-12.192,6.539-20.277c5.12-7.435,11.787-13.728,19.253-18.731
	C161.227,13.717,208.587,0,256.064,0c47.339,0,94.816,13.728,135.755,41.184c7.435,5.003,14.101,11.296,19.253,18.731
	C416.704,68,417.6,73.387,417.728,80.181"/>
<path style="fill:#334A5E;" d="M383.317,131.253c5.312,12.907,0.213,27.819-12.021,34.549
	c-17.205,9.483-43.317,15.232-61.024,15.232H201.856c-17.728,0-43.829-5.749-61.024-15.232
	c-12.224-6.731-17.355-21.643-12.043-34.549H383.317z"/>
<path style="fill:#F2F2F2;" d="M512,434.987V512H0v-77.013c0-20.373,12.48-38.72,31.477-46.08l97.376-38.293l10.56-4.16
	l84.267,92.587l26.453-53.867v-0.107L256,373.013l5.984,12.053l26.453,53.973l84.149-92.587l10.357,4.053l0.213,0.107l97.504,38.293
	C499.52,396.384,512,414.624,512,434.987"/>
<rect x="26.865" y="376.972" transform="matrix(-0.9288 0.3707 -0.3707 -0.9288 299.0388 739.0129)" style="fill:#40596B;" width="103.279" height="42.541"/>
<g>
	
		<rect x="39.616" y="390.091" transform="matrix(-0.9287 0.3708 -0.3708 -0.9287 240.3196 776.5182)" style="fill:#FFD15C;" width="11.797" height="42.538"/>
	
		<rect x="59.067" y="382.335" transform="matrix(-0.9287 0.3708 -0.3708 -0.9287 274.9573 754.3468)" style="fill:#FFD15C;" width="11.797" height="42.538"/>
</g>
<rect x="383.178" y="376.944" transform="matrix(0.9288 0.3707 -0.3707 0.9288 178.5884 -132.8108)" style="fill:#40596B;" width="103.279" height="42.541"/>
<g>
	
		<rect x="461.918" y="390.088" transform="matrix(0.9285 0.3714 -0.3714 0.9285 186.2337 -144.3172)" style="fill:#FFD15C;" width="11.776" height="42.54"/>
	
		<rect x="442.471" y="382.391" transform="matrix(0.9287 0.3708 -0.3708 0.9287 181.6426 -137.481)" style="fill:#FFD15C;" width="11.797" height="42.538"/>
</g>
<path style="fill:#40596B;" d="M285.525,44.992l-5.92,10.261h3.275c0,13.867-10.624,25.173-24.149,26.528V47.787h10.773v-5.333
	h-10.773v-8.267c4.981-1.227,8.747-5.515,8.747-10.869c0-6.304-5.109-11.413-11.413-11.413c-6.304,0-11.413,5.109-11.413,11.413
	c0,5.355,3.776,9.643,8.747,10.869v8.267h-10.773v5.333h10.773v33.995c-13.525-1.355-24.149-12.661-24.149-26.528h3.253
	l-5.92-10.261l-5.909,10.261h3.253c0,17.717,14.443,32.139,32.149,32.139s32.139-14.421,32.139-32.139h3.253L285.525,44.992z
	 M249.621,23.317c0-3.552,2.88-6.443,6.443-6.443c3.541,0,6.443,2.891,6.443,6.443s-2.901,6.443-6.443,6.443
	C252.501,29.76,249.621,26.869,249.621,23.317"/>
<g>
	<polygon style="fill:#CDD6E0;" points="372.587,346.453 293.877,449.717 256,373.024 265.707,367.573 331.52,330.453 
		331.627,330.453 331.733,330.357 	"/>
	<polygon style="fill:#CDD6E0;" points="139.413,346.453 218.251,449.717 256,373.024 246.293,367.573 180.48,330.453 
		180.267,330.357 	"/>
</g>
<g>
	<polygon style="fill:#E6EAED;" points="382.933,350.507 291.957,469.867 250.123,385.173 250.123,385.077 256,373.024 
		261.984,385.077 288.437,439.051 372.587,346.453 	"/>
	<polygon style="fill:#E6EAED;" points="129.376,350.507 220.352,469.867 262.165,385.173 262.165,385.077 256.309,373.024 
		250.336,385.077 223.872,439.051 139.733,346.453 	"/>
</g>
<polygon style="fill:#40596B;" points="218.251,512 239.787,462.933 230.496,449.291 223.691,439.051 250.144,385.077 256,373.024 
	261.984,385.077 261.984,385.184 288.437,439.051 281.504,449.184 272.213,462.933 293.877,512 "/>
<polygon style="fill:#334A5E;" points="288.437,439.051 281.504,449.173 256.107,397.237 230.496,449.291 223.691,439.051 
	250.123,385.077 256,373.013 261.984,385.077 261.984,385.173 "/>
<g>
</g>
<g>
</g>
<g>
</g>
<g>
</g>
<g>
</g>
<g>
</g>
<g>
</g>
<g>
</g>
<g>
</g>
<g>
</g>
<g>
</g>
<g>
</g>
<g>
</g>
<g>
</g>
<g>
</g>
</svg>
