<?xml version="1.0" encoding="iso-8859-1"?>
<!-- Generator: Adobe Illustrator 19.0.0, SVG Export Plug-In . SVG Version: 6.00 Build 0)  -->
<svg version="1.1" id="Capa_1" xmlns="http://www.w3.org/2000/svg" xmlns:xlink="http://www.w3.org/1999/xlink" x="0px" y="0px"
	 viewBox="0 0 512.01 512.01" style="enable-background:new 0 0 512.01 512.01;" xml:space="preserve">
<polygon style="fill:#F8B64C;" points="333.253,397.098 333.402,396.948 333.402,396.874 "/>
<path style="fill:#ACB3BA;" d="M508.592,512.01H3.418c15.253-60.907,78.293-86.293,142.08-120.64
	c0.853-0.533,29.003-16.533,32.523-18.56l0.331-0.213h0.107c22.187,23.893,52.683,35.093,82.667,33.6c0.309,0,0.747,0,1.067-0.107
	c1.504,0,2.976-0.224,4.48-0.32c3.52-0.32,6.933-0.853,10.453-1.6c1.813-0.32,3.52-0.747,5.227-1.173
	c1.6-0.32,3.189-0.853,4.683-1.28c17.269-5.227,33.504-14.933,46.603-29.12l0.331,0.213c3.52,2.027,31.669,18.027,32.523,18.56
	C430.405,425.727,493.445,451.114,508.592,512.01"/>
<path style="fill:#F2F2F2;" d="M333.648,372.596L321.712,512.01H190.298l-11.936-139.413h0.107
	c22.187,23.893,52.683,35.093,82.667,33.6c0.309,0,0.747,0,1.067-0.107c1.504,0,2.976-0.213,4.48-0.32
	c3.52-0.32,6.933-0.853,10.453-1.6c1.813-0.32,3.52-0.747,5.227-1.173c1.6-0.32,3.189-0.853,4.683-1.28
	C304.314,396.49,320.549,386.783,333.648,372.596"/>
<path style="fill:#F8B64C;" d="M333.669,372.575c-19.627,21.12-45.877,32.32-72.544,33.6c-29.984,1.493-60.48-9.707-82.667-33.6
	h-0.107c0,0,3.52-22.08,9.504-42.987c7.669,10.24,16.213,18.773,25.483,25.493c10.144,7.467,21.227,12.373,32.747,14.187
	c3.104,0.533,16.107,0.533,19.317,0c21.984-3.413,42.016-18.24,58.251-39.68C329.605,350.495,333.669,372.575,333.669,372.575"/>
<g style="opacity:0.1;">
	<g>
		<path style="fill:#40596B;" d="M333.669,372.575c-19.627,21.12-45.877,32.32-72.544,33.6l-48-48l0.213-3.093
			c10.144,7.467,21.227,12.373,32.747,14.187c3.104,0.533,16.107,0.533,19.317,0c21.984-3.413,42.016-18.24,58.251-39.68
			C329.605,350.495,333.669,372.575,333.669,372.575"/>
	</g>
</g>
<g>
	<path style="fill:#F8B64C;" d="M354.277,211.924c-2.475,17.077,2.933,32,12.107,33.344c9.184,1.344,18.645-11.403,21.163-28.48
		c2.496-17.077-2.933-32-12.107-33.344C366.256,182.1,356.773,194.847,354.277,211.924"/>
	<path style="fill:#F8B64C;" d="M157.029,211.924c2.496,17.077-2.912,32-12.107,33.344s-18.645-11.403-21.141-28.48
		s2.912-32,12.107-33.344C145.05,182.1,154.522,194.847,157.029,211.924"/>
</g>
<path style="fill:#FFD15C;" d="M376.592,183.444c0,84.597-54.144,189.109-120.939,189.109S134.714,268.042,134.714,183.444
	S188.858,52.511,255.653,52.511S376.592,98.847,376.592,183.444"/>
<g>
	<path style="fill:#CDD6E0;" d="M362.256,464.116c-0.853,0.427-1.088,1.6-0.437,2.24l46.496,45.653h-86.603l11.936-139.413
		l0.331,0.224l75.733,68.053c0.747,0.64,0.651,1.92-0.309,2.24L362.256,464.116z"/>
	<path style="fill:#CDD6E0;" d="M150.192,466.356c0.651-0.64,0.437-1.813-0.416-2.24l-47.147-21.013
		c-0.981-0.32-1.088-1.6-0.331-2.24l75.733-68.053l0.331-0.213l11.936,139.413h-86.507L150.192,466.356z"/>
</g>
<g>
	<path style="fill:#334A5E;" d="M271.568,329.279l-15.915-25.099l-16.171,25.099c-71.456,6.112-103.755-125.76-103.755-125.76
		c-1.621,9.056-2.144,14.517-1.984,26.005c0.245,39.659,19.893,88.96,50.08,114.539c37.088,31.211,71.691,41.621,71.691,41.621
		s34.859-10.411,71.691-41.621c30.453-25.579,50.08-74.88,50.357-114.539c0.149-11.488-0.373-16.949-2.005-26.005
		C375.568,203.519,343.024,335.391,271.568,329.279"/>
	<path style="fill:#334A5E;" d="M345.125,175.711c-1.792-11.531-19.808-11.435-19.808-11.435H293.53
		c-24.832,0-30.624,10.421-31.957,16.032c-3.915-0.651-7.915-0.651-11.829,0c-1.333-5.611-7.125-16.032-31.957-16.032H186
		c0,0-18.005-0.096-19.787,11.435c0,0-8.373,45.184,25.088,51.317c0,0,44.768,7.211,56.373-30.955c5.067-2.187,10.933-2.187,16,0
		c11.605,38.165,56.373,30.955,56.373,30.955C353.488,220.895,345.125,175.711,345.125,175.711"/>
	<path style="fill:#334A5E;" d="M134.885,191.658L134.885,191.658c3.253-22.347,19.435-50.069,13.707-67.776
		c0,0,2.709-42.741,74.56-40.021c71.851,2.731,104,37.163,137.92,29.92l15.52,77.877c0,0,17.547-44.128,18.453-93.237
		c0,0-2.731-20.011-17.269-21.835c0,0,0-23.648-10.912-23.648c0,0-2.709-11.872-23.648-14.549c0,0-10.005-5.461-18.187,0
		c0,0-74.581-66.389-157.355-24.555c0,0-38.187,20.011-35.456,64.576C132.218,78.42,109.008,116.98,134.885,191.658"/>
	<path style="fill:#334A5E;" d="M321.754,272.458c0,0-5.963,19.851-37.376,17.152c0,0-23.296-1.077-28.725-10.848
		c-5.419,9.771-28.704,10.848-28.704,10.848c-31.456,2.699-37.397-17.152-37.397-17.152c23.296,6.517,38.453-5.952,38.453-5.952
		c12.747-12.736,27.648,0,27.648,0s14.891-12.736,27.627,0C283.28,266.506,298.458,278.975,321.754,272.458"/>
</g>
<g>
</g>
<g>
</g>
<g>
</g>
<g>
</g>
<g>
</g>
<g>
</g>
<g>
</g>
<g>
</g>
<g>
</g>
<g>
</g>
<g>
</g>
<g>
</g>
<g>
</g>
<g>
</g>
<g>
</g>
</svg>
