<?xml version="1.0" encoding="iso-8859-1"?>
<!-- Generator: Adobe Illustrator 19.0.0, SVG Export Plug-In . SVG Version: 6.00 Build 0)  -->
<svg version="1.1" id="Capa_1" xmlns="http://www.w3.org/2000/svg" xmlns:xlink="http://www.w3.org/1999/xlink" x="0px" y="0px"
	 viewBox="0 0 512 512" style="enable-background:new 0 0 512 512;" xml:space="preserve">
<path style="fill:#40596B;" d="M284.651,143.232L256,124.288l-28.651,18.933c-106.101,70.101-106.101,183.787,0,253.92L256,416.085
	l28.651-18.933C390.752,327.019,390.752,213.333,284.651,143.232"/>
<path style="fill:#4CDBC4;" d="M394.475,162.837c0,89.941-275.733,89.941-275.733,0S180.48,0,256.608,0
	C332.747,0,394.475,72.896,394.475,162.837"/>
<path style="fill:#40596B;" d="M493.707,512H18.293l10.144-103.275c8.107-47.584,39.563-86.08,81.483-104.651
	c17.504-7.893,36.917-12.267,57.184-12.267h177.813c20.587,0,40.213,4.48,57.92,12.587c41.483,18.667,72.651,57.088,80.747,104.331
	L493.707,512z"/>
<path style="fill:#4CDBC4;" d="M493.707,512H18.293l10.144-103.275c8.107-47.584,39.563-86.08,81.483-104.651
	c17.504-7.893,36.917-12.267,57.184-12.267h177.813c20.587,0,40.213,4.48,57.92,12.587c41.483,18.667,72.651,57.088,80.747,104.331
	L493.707,512z"/>
<g>
	<rect x="251.051" y="285.995" style="fill:#FFD15C;" width="0.021" height="0.043"/>
	<rect x="256.32" y="159.445" style="fill:#FFD15C;" width="0.043" height="0.064"/>
</g>
<g>
	<path style="fill:#F8B64C;" d="M165.291,153.227c4.224,18.144,2.005,34.187-5.003,35.808c-6.976,1.643-16.085-11.755-20.309-29.899
		s-2.005-34.187,4.981-35.808C151.957,121.707,161.067,135.104,165.291,153.227"/>
	<path style="fill:#F8B64C;" d="M346.976,153.227c-4.224,18.144-1.984,34.187,5.003,35.808c6.976,1.643,16.085-11.755,20.309-29.899
		s2.005-34.187-4.981-35.808C360.309,121.707,351.232,135.104,346.976,153.227"/>
</g>
<g>
	<path style="fill:#FFD15C;" d="M356.416,205.984c-29.376,93.248-99.808,100.331-99.808,100.331s-70.421-7.083-99.787-100.331
		c0,0-15.733-48.629-2.539-89.163c0,0,8.064-69.163,102.336-69.163s102.357,69.163,102.357,69.163
		C372.149,157.355,356.416,205.984,356.416,205.984"/>
	<path style="fill:#FFD15C;" d="M255.957,421.397l-71.349-129.6v-31.147c32.213,41.6,72,45.664,72,45.664
		s39.349-3.957,71.563-45.024v30.496L255.957,421.397z"/>
</g>
<path style="fill:#F8B64C;" d="M255.915,306.208c-2.912-0.395-15.733-2.645-31.712-11.371c-0.107-0.064-0.213-0.085-0.309-0.149
	l-0.352,0.128l66.187,66.187l38.443-69.205v-30.496c-32.213,41.067-71.563,45.024-71.563,45.024s-0.256-0.053-0.608-0.096
	C255.957,306.229,255.957,306.208,255.915,306.208"/>
<path style="fill:#3DC9AE;" d="M343.936,291.808h-16.747l-72.192,129.579l-71.349-129.579h-17.525
	c-3.499,0-6.955,0.288-10.421,0.565l98.56,170.773l102.816-170.624C352.725,292.128,348.373,291.808,343.936,291.808"/>
<path style="fill:#4CDBC4;" d="M256.608,110.837c39.893,0,76.917,4.565,107.627,12.373c-8.768-53.088-53.557-93.525-107.627-93.525
	c-54.037,0-98.837,40.437-107.605,93.525C179.691,115.392,216.725,110.837,256.608,110.837"/>
<g>
	<path style="fill:#ACB3BA;" d="M358.709,122.005l-41.664,86.816l4.789,2.336l42.229-87.979
		C362.357,122.731,360.437,122.421,358.709,122.005"/>
	<path style="fill:#ACB3BA;" d="M153.899,122.005l41.664,86.816l-4.789,2.336l-42.229-87.979
		C150.251,122.731,152.171,122.421,153.899,122.005"/>
</g>
<g>
	<path style="fill:#F2F2F2;" d="M329.877,245.227l-5.003-41.685l-68.267-8.128l-68.267,8.128l-5.024,41.685h-9.92
		c0,0,45.227,69.771,83.211,69.771s83.317-69.771,83.317-69.771L329.877,245.227L329.877,245.227z"/>
	<rect x="328.171" y="463.147" style="fill:#F2F2F2;" width="92.981" height="21.333"/>
</g>
<g>
</g>
<g>
</g>
<g>
</g>
<g>
</g>
<g>
</g>
<g>
</g>
<g>
</g>
<g>
</g>
<g>
</g>
<g>
</g>
<g>
</g>
<g>
</g>
<g>
</g>
<g>
</g>
<g>
</g>
</svg>
