<?xml version="1.0" encoding="iso-8859-1"?>
<!-- Generator: Adobe Illustrator 19.0.0, SVG Export Plug-In . SVG Version: 6.00 Build 0)  -->
<svg version="1.1" id="Layer_1" xmlns="http://www.w3.org/2000/svg" xmlns:xlink="http://www.w3.org/1999/xlink" x="0px" y="0px"
	 viewBox="0 0 508.609 508.609" style="enable-background:new 0 0 508.609 508.609;" xml:space="preserve">
<g>
	<path style="fill:#56545F;" d="M254.638,456.053c85.446,0,158.347-45.436,188.525-109.521c-7.121-5.764-15.597-10.172-25.43-12.546
		l-50.522-11.868l-18.649-4.408c-23.396-5.425-39.672-26.109-39.672-50.183v-60.355H200.386v60.016
		c0,23.735-16.275,44.758-39.672,50.183l-18.649,4.408l-50.522,11.868c-9.833,2.374-18.31,6.781-25.43,12.546
		C96.291,410.617,169.192,456.053,254.638,456.053z"/>
	<path style="fill:#56545F;" d="M254.638,0L254.638,0C193.605,0,144.1,49.505,144.1,110.538v85.785
		c0,61.033,49.505,110.538,110.538,110.538l0,0c61.033,0,110.538-49.505,110.538-110.538v-85.785
		C365.176,49.505,315.671,0,254.638,0z"/>
</g>
<path style="fill:#FF667C;" d="M443.163,346.193c-30.177,64.424-103.078,109.521-188.525,109.521S96.291,410.278,66.114,346.193
	c-12.207,10.172-20.005,25.091-20.005,41.028v121.388h70.188h271.258h74.935V387.221
	C462.829,371.285,455.369,356.705,443.163,346.193z"/>
<path style="fill:#FACCB4;" d="M278.373,92.228c-11.529,20.005-38.315,54.252-94.601,74.257v30.856
	c0,38.654,29.838,71.544,68.493,72.901c40.35,1.356,73.579-30.856,73.579-71.205v-40.011
	C325.843,128.17,305.838,101.722,278.373,92.228z"/>
<path style="fill:#8A6753;" d="M278.373,92.228c-7.46-2.713-15.258-4.069-23.735-4.069c-39.332,0-71.205,31.873-71.205,71.205v7.121
	C240.058,146.479,266.845,112.233,278.373,92.228z"/>
<g>
</g>
<g>
</g>
<g>
</g>
<g>
</g>
<g>
</g>
<g>
</g>
<g>
</g>
<g>
</g>
<g>
</g>
<g>
</g>
<g>
</g>
<g>
</g>
<g>
</g>
<g>
</g>
<g>
</g>
</svg>
