<svg height="512pt" viewBox="0 0 512 512" width="512pt" xmlns="http://www.w3.org/2000/svg"><path d="m416 512h-320c-53.023438 0-96-42.976562-96-96v-320c0-53.023438 42.976562-96 96-96h320c53.023438 0 96 42.976562 96 96v320c0 53.023438-42.976562 96-96 96zm0 0" fill="#fff9dd"/><path d="m365.328125 312h-2.671875v-16c0-14.703125-11.96875-26.671875-26.671875-26.671875s-26.671875 11.96875-26.671875 26.671875v16h-2.671875c-10.273437 0-18.640625 8.367188-18.640625 18.671875v37.328125c0 10.289062 8.367188 18.671875 18.671875 18.671875h58.671875c10.289062 0 18.65625-8.382813 18.65625-18.671875v-37.328125c0-10.304687-8.367188-18.671875-18.671875-18.671875zm-40-16c0-5.886719 4.785156-10.671875 10.671875-10.671875s10.671875 4.785156 10.671875 10.671875v16h-21.328125v-16zm0 0" fill="#ffe777"/><g fill="#ffd200"><path d="m272 330.671875c0-14.398437 8.816406-26.769531 21.328125-32v-2.671875c0-6.480469 1.566406-12.574219 4.160156-18.078125-8.0625-5.410156-17.746093-8.59375-28.160156-8.59375h-90.671875c-27.921875 0-50.65625 22.734375-50.65625 50.671875v37.328125c0 4.414063 3.585938 8 8 8h136zm0 0"/><path d="m277.328125 194.671875c0 29.453125-23.875 53.328125-53.328125 53.328125s-53.328125-23.875-53.328125-53.328125 23.875-53.328125 53.328125-53.328125 53.328125 23.875 53.328125 53.328125zm0 0"/></g></svg>