<svg height="512pt" viewBox="0 0 512 512" width="512pt" xmlns="http://www.w3.org/2000/svg"><path d="m416 512h-320c-53.023438 0-96-42.976562-96-96v-320c0-53.023438 42.976562-96 96-96h320c53.023438 0 96 42.976562 96 96v320c0 53.023438-42.976562 96-96 96zm0 0" fill="#ffe6e2"/><path d="m221.328125 160c0 17.671875-14.328125 32-32 32s-32-14.328125-32-32 14.328125-32 32-32 32 14.328125 32 32zm0 0" fill="#fc573b"/><path d="m208 202.671875h-37.328125c-19.121094 0-34.671875 15.550781-34.671875 34.671875v42.65625c0 13.390625 9.054688 24.574219 21.328125 28.078125v59.921875c0 8.832031 7.167969 16 16 16s16-7.167969 16-16c0 8.832031 7.167969 16 16 16s16-7.167969 16-16v-59.921875c12.273437-3.503906 21.328125-14.703125 21.328125-28.078125v-42.671875c.015625-19.105469-15.535156-34.65625-34.65625-34.65625zm0 0" fill="#fc573b"/><path d="m357.457031 186.128906-37.328125-34.671875c-1.503906-1.410156-3.457031-2.128906-5.441406-2.128906-5.28125 0-8 4.496094-8 7.984375v24h-42.6875c-5.886719 0-10.671875 4.785156-10.671875 10.671875s4.769531 10.671875 10.671875 10.671875h42.671875v24c0 4.433594 3.601563 8 8 8 1.984375 0 3.9375-.734375 5.441406-2.128906l37.328125-34.671875c1.628906-1.519531 2.558594-3.648438 2.558594-5.871094s-.929688-4.335937-2.542969-5.855469zm0 0" fill="#fd907e"/></svg>