<svg height="512pt" viewBox="0 0 512 512" width="512pt" xmlns="http://www.w3.org/2000/svg"><path d="m416 512h-320c-53.023438 0-96-42.976562-96-96v-320c0-53.023438 42.976562-96 96-96h320c53.023438 0 96 42.976562 96 96v320c0 53.023438-42.976562 96-96 96zm0 0" fill="#f5e6fe"/><path d="m354.671875 170.671875h-56v-2.671875c0-10.289062-8.367187-18.671875-18.671875-18.671875h-48c-10.289062 0-18.671875 8.367187-18.671875 18.671875v2.671875h-56c-16.175781 0-29.328125 13.152344-29.328125 29.328125v133.328125c0 16.175781 13.152344 29.328125 29.328125 29.328125h197.328125c16.175781 0 29.328125-13.152344 29.328125-29.328125v-133.328125c.015625-16.175781-13.136719-29.328125-29.3125-29.328125zm0 0" fill="#be63f9"/><path d="m234.671875 170.671875h42.671875v21.328125h-42.671875zm0 0" fill="#f5e6fe"/><g fill="#d9a4fc"><path d="m344 330.671875h-58.671875c-4.417969 0-8-3.582031-8-8 0-4.414063 3.582031-8 8-8h58.671875c4.414062 0 8 3.585937 8 8 0 4.417969-3.585938 8-8 8zm0 0"/><path d="m344 288h-58.671875c-4.417969 0-8-3.585938-8-8s3.582031-8 8-8h58.671875c4.414062 0 8 3.585938 8 8s-3.585938 8-8 8zm0 0"/><path d="m344 245.328125h-58.671875c-4.417969 0-8-3.585937-8-8 0-4.417969 3.582031-8 8-8h58.671875c4.414062 0 8 3.582031 8 8 0 4.414063-3.585938 8-8 8zm0 0"/></g><path d="m234.671875 250.671875c0 14.730469-11.941406 26.671875-26.671875 26.671875s-26.671875-11.941406-26.671875-26.671875 11.941406-26.671875 26.671875-26.671875 26.671875 11.941406 26.671875 26.671875zm0 0" fill="#f5e6fe"/><path d="m256 322.671875c0 4.417969-3.585938 8-8 8h-80c-4.414062 0-8-3.582031-8-8v-5.328125c0-16.191406 13.152344-29.34375 29.328125-29.34375h37.328125c16.191406 0 29.34375 13.152344 29.34375 29.328125zm0 0" fill="#f5e6fe"/></svg>