<?xml version="1.0" encoding="iso-8859-1"?>
<!-- Generator: Adobe Illustrator 19.0.0, SVG Export Plug-In . SVG Version: 6.00 Build 0)  -->
<svg version="1.1" id="Capa_1" xmlns="http://www.w3.org/2000/svg" xmlns:xlink="http://www.w3.org/1999/xlink" x="0px" y="0px"
	 viewBox="0 0 512 512" style="enable-background:new 0 0 512 512;" xml:space="preserve">
<circle style="fill:#FFD93B;" cx="256" cy="256" r="256"/>
<g>
	<path style="fill:#F4C534;" d="M512,256c0,141.44-114.64,256-256,256c-80.48,0-152.32-37.12-199.28-95.28
		c43.92,35.52,99.84,56.72,160.72,56.72c141.36,0,256-114.56,256-256c0-60.88-21.2-116.8-56.72-160.72
		C474.8,103.68,512,175.52,512,256z"/>
	<path style="fill:#F4C534;" d="M239.04,234.032c0,41.52-27.84,75.008-62.192,75.008c-34.496,0-62.32-33.504-62.32-75.008
		c0-41.36,27.824-74.848,62.32-74.848C211.216,159.168,239.04,192.672,239.04,234.032z"/>
</g>
<g>
	<path style="fill:#3E4347;" d="M237.28,253.072c-3.456-12.528-29.136-22.096-60.432-22.096c-31.424,0-57.104,9.584-60.56,22.096
		c3.456-27.984,29.136-49.696,60.56-49.696C208.16,203.376,233.84,225.104,237.28,253.072z"/>
	<path style="fill:#3E4347;" d="M108.32,149.616c-1.856-5.088,0.752-10.72,5.856-12.576l95.808-34.96
		c5.12-1.84,10.72,0.768,12.56,5.84c1.856,5.088-0.752,10.704-5.84,12.576l-95.824,34.96
		C115.744,157.312,110.16,154.656,108.32,149.616z"/>
</g>
<path style="fill:#F4C534;" d="M272.96,234.032c0,41.52,27.84,75.008,62.192,75.008c34.496,0,62.32-33.504,62.32-75.008
	c0-41.36-27.824-74.848-62.32-74.848C300.784,159.168,272.96,192.672,272.96,234.032z"/>
<g>
	<path style="fill:#3E4347;" d="M274.72,253.072c3.456-12.528,29.136-22.096,60.432-22.096c31.424,0,57.104,9.584,60.56,22.096
		c-3.456-27.984-29.136-49.696-60.56-49.696C303.84,203.376,278.16,225.104,274.72,253.072z"/>
	<path style="fill:#3E4347;" d="M391.12,155.456l-95.808-34.96c-5.088-1.856-7.712-7.488-5.84-12.576
		c1.856-5.072,7.472-7.68,12.56-5.84l95.808,34.96c5.088,1.856,7.712,7.488,5.84,12.576
		C401.856,154.656,396.256,157.312,391.12,155.456z"/>
	<path style="fill:#3E4347;" d="M406.896,356.176c-6,1.504-13.424-0.992-17.92-5.28c-0.16,0.16-0.16,0.32-0.32,0.48
		c-25.04,46.464-72.368,78.4-132.64,79.36c-58.128-0.448-106.992-31.776-132.64-79.36c-0.16-0.16-0.16-0.32-0.32-0.48
		c-4.864,4.656-12.608,6.704-17.92,5.28c0-0.32,7.04-6.24,12.48-11.2c5.44-4.64,10.56-11.84,10.88-12
		c1.856,4.352,0.288,12.416-4.96,17.44c41.424,45.632,86.016,60.784,132.448,60.784c54.448-0.88,95.696-20.336,132.512-60.784
		c-5.264-5.024-6.832-13.104-4.96-17.44c0.32,0.16,5.44,7.36,10.88,12C399.856,349.936,406.896,355.856,406.896,356.176z"/>
</g>
<g>
</g>
<g>
</g>
<g>
</g>
<g>
</g>
<g>
</g>
<g>
</g>
<g>
</g>
<g>
</g>
<g>
</g>
<g>
</g>
<g>
</g>
<g>
</g>
<g>
</g>
<g>
</g>
<g>
</g>
</svg>
